<svg xmlns="http://www.w3.org/2000/svg" xmlns:xlink="http://www.w3.org/1999/xlink" width="18.299" height="18.5" viewBox="0 0 18.299 18.5"><defs><clipPath id="a"><path d="M16.738,18.3c-1.7-.915-5.231-5.22-5.231-5.22V12.25l-.282-.292a6.81,6.81,0,1,1,.732-.732l.292.282h.827l5.22,5.231s.1,1.762-.89,1.762A1.439,1.439,0,0,1,16.738,18.3Z" transform="translate(0 0)" fill="#fff" stroke="#fff" stroke-width="1"/></clipPath></defs><g clip-path="url(#a)"><g transform="translate(0 0)"><path d="M16.076,14.507H15.25l-.293-.282a6.81,6.81,0,1,0-.732.732l.282.293v.826l5.231,5.22L21.3,19.738l-5.22-5.231Zm-6.277,0A4.708,4.708,0,1,1,14.507,9.8,4.7,4.7,0,0,1,9.8,14.507Z" transform="translate(-3 -3)" fill="#fff"/></g></g></svg>