<?xml version="1.0" standalone="no"?>
<!DOCTYPE svg PUBLIC "-//W3C//DTD SVG 1.1//EN" "http://www.w3.org/Graphics/SVG/1.1/DTD/svg11.dtd" >
<svg xmlns="http://www.w3.org/2000/svg">
<metadata>Generated by IcoMoon</metadata>
<defs>
<font id="icomoon" horiz-adv-x="1024">
<font-face units-per-em="1024" ascent="960" descent="-64" />
<missing-glyph horiz-adv-x="1024" />
<glyph unicode="&#x20;" horiz-adv-x="512" d="" />
<glyph unicode="&#xe900;" glyph-name="arrow-down" d="M722.273 586.304c15.341 14.706 40.213 14.706 55.554 0s15.341-38.55 0-53.256l-244.494-234.381-244.494 234.381c-15.341 14.706-15.341 38.55 0 53.256s40.213 14.706 55.554 0l188.94-181.124 188.94 181.124z" />
<glyph unicode="&#xe901;" glyph-name="arrow-left1" d="M628.97 636.94c14.706 15.341 14.706 40.213 0 55.554s-38.55 15.341-53.256 0l-234.381-244.494 234.381-244.494c14.706-15.341 38.55-15.341 53.256 0s14.706 40.213 0 55.554l-181.124 188.94 181.124 188.94z" />
<glyph unicode="&#xe902;" glyph-name="arrow-right1" d="M395.030 636.94c-14.706 15.341-14.706 40.213 0 55.554s38.55 15.341 53.256 0l234.381-244.494-234.381-244.494c-14.706-15.341-38.55-15.341-53.256 0s-14.706 40.213 0 55.554l181.124 188.94-181.124 188.94z" />
<glyph unicode="&#xe903;" glyph-name="arrow-up" d="M722.273 267.030c15.341-14.706 40.213-14.706 55.554 0s15.341 38.55 0 53.256l-244.494 234.381-244.494-234.381c-15.341-14.706-15.341-38.55 0-53.256s40.213-14.706 55.554 0l188.94 181.124 188.94-181.124z" />
<glyph unicode="&#xe904;" glyph-name="bag" d="M976.817-38.496l-76.513 712.847c-1.275 11.477-11.477 20.403-22.954 20.403h-141.549v43.357c0 122.421-99.467 221.888-221.888 221.888s-221.888-99.467-221.888-221.888v-43.357h-145.375c-11.477 0-21.679-8.927-22.954-20.403l-76.513-712.847c-1.275-6.376 1.275-12.752 5.101-17.853s10.202-7.651 16.578-7.651h886.276c6.376 0 12.752 2.55 16.578 7.651s6.376 11.477 5.101 17.853zM712.847 565.958c11.477 0 20.403-8.927 20.403-20.403s-8.927-20.403-20.403-20.403c-11.477 0-20.403 8.927-20.403 20.403s8.927 20.403 20.403 20.403zM337.933 738.112c0 96.917 79.064 175.98 175.98 175.98s175.98-79.064 175.98-175.98v-43.357h-351.96v43.357zM314.979 565.958c11.477 0 20.403-8.927 20.403-20.403s-8.927-20.403-20.403-20.403c-11.477 0-20.403 8.927-20.403 20.403s8.927 20.403 20.403 20.403zM95.641-16.817l71.412 666.939h124.971v-42.082c-25.504-8.927-43.357-33.156-43.357-61.21 0-35.706 29.33-65.036 65.036-65.036s65.036 29.33 65.036 65.036c0 28.055-17.853 52.284-43.357 61.21v42.082h351.96v-42.082c-25.504-8.927-43.357-33.156-43.357-61.21 0-35.706 29.33-65.036 65.036-65.036s65.036 29.33 65.036 65.036c0 28.055-17.853 52.284-43.357 61.21v42.082h130.072l71.412-666.939h-836.543z" />
<glyph unicode="&#xe905;" glyph-name="arrow-back" d="M440.816 210.697c42.725-42.901-23.473-109.216-66.227-66.492-92.068 91.862-183.9 183.841-275.512 275.423-18.325 18.075-18.325 48.387 0 66.448 96.245 96.509 192.974 192.974 289.454 289.454 42.769 42.754 109.084-23.576 66.183-66.433v0l-205.669-205.732 642.215 0.034c61.101 0 63.138-87.64 6.11-93.483l-6.11-0.306-649.469-0.027 61.252-61.259z" />
<glyph unicode="&#xe906;" glyph-name="burger" d="M900.741 225.185c20.946 0 37.926-16.98 37.926-37.926s-16.98-37.926-37.926-37.926h-777.481c-20.946 0-37.926 16.98-37.926 37.926s16.98 37.926 37.926 37.926h777.481zM900.741 485.926c20.946 0 37.926-16.98 37.926-37.926s-16.98-37.926-37.926-37.926h-777.481c-20.946 0-37.926 16.98-37.926 37.926s16.98 37.926 37.926 37.926h777.481zM900.741 746.667c20.946 0 37.926-16.98 37.926-37.926s-16.98-37.926-37.926-37.926h-777.481c-20.946 0-37.926 16.98-37.926 37.926s16.98 37.926 37.926 37.926h777.481z" />
<glyph unicode="&#xe907;" glyph-name="location" d="M512 960c-208.583 0-378.27-169.688-378.27-378.27 0-68.667 30.796-142.519 32.086-145.634 9.946-23.609 29.572-60.278 43.724-81.773l259.36-392.978c10.614-16.11 26.323-25.344 43.101-25.344s32.487 9.234 43.101 25.322l259.382 393.001c14.174 21.495 33.777 58.165 43.724 81.773 1.291 3.093 32.064 76.945 32.064 145.634 0 208.583-169.688 378.27-378.27 378.27zM817.175 453.363c-8.878-21.161-27.146-55.272-39.852-74.542l-259.382-393.001c-5.118-7.766-6.742-7.766-11.86 0l-259.382 393.001c-12.705 19.27-30.974 53.403-39.852 74.564-0.378 0.912-28.615 68.89-28.615 128.345 0 184.040 149.728 333.768 333.768 333.768s333.768-149.728 333.768-333.768c0-59.544-28.304-127.7-28.593-128.367zM512 781.968c-110.433 0-200.261-89.85-200.261-200.261s89.828-200.261 200.261-200.261c110.433 0 200.261 89.85 200.261 200.261s-89.828 200.261-200.261 200.261zM512 425.949c-85.867 0-155.758 69.869-155.758 155.758s69.891 155.758 155.758 155.758 155.758-69.869 155.758-155.758-69.891-155.758-155.758-155.758z" />
<glyph unicode="&#xe908;" glyph-name="check1" d="M405.123 140.188l-319.79 323.717 67.885 66.763 251.904-254.71 465.659 470.708 67.885-67.324z" />
<glyph unicode="&#xe909;" glyph-name="closed" d="M586.667 448l246.187 246.187c14.080 14.080 14.080 37.12 0 51.2s-37.12 14.080-51.2 0l-246.187-246.187-246.187 246.187c-14.080 14.080-37.12 14.080-51.2 0s-14.080-37.12 0-51.2l246.187-246.187-246.187-246.187c-14.080-14.080-14.080-37.12 0-51.2 7.253-7.253 16.213-10.667 25.6-10.667s18.773 3.413 25.6 10.667l246.187 246.187 246.187-246.187c7.253-7.253 16.213-10.667 25.6-10.667s18.773 3.413 25.6 10.667c14.080 14.080 14.080 37.12 0 51.2l-246.187 246.187z" />
<glyph unicode="&#xe90a;" glyph-name="fb-footer-white" d="M968.209 960h-911.858c-31.306 0-56.351-25.031-56.351-56.32v-910.791c0-31.858 25.045-56.889 56.351-56.889h490.65v396.516h-133.762v154.738h133.762v113.778c0 131.982 80.826 204.231 198.651 204.231 56.351 0 105.302-3.982 119.532-6.258v-138.24h-81.965c-64.32 0-76.842-30.72-76.842-75.093v-98.418h153.115l-19.922-154.738h-133.193v-396.516h261.263c31.306 0 56.36 25.031 56.36 56.32v911.36c0.56 31.289-24.485 56.32-55.791 56.32z" />
<glyph unicode="&#xe90b;" glyph-name="ig-footer-white" d="M576.417 959.937c81.785-0.204 101.418-0.966 145.931-3.171 54.944-2.156 92.112-11.318 124.431-23.714 33.397-13.474 61.946-30.72 90.496-59.284s46.325-57.128 59.253-90.543c12.928-32.337 21.547-69.524 24.24-123.419 2.204-44.978 2.965-64.7 3.169-146.543v-129.492c-0.204-81.96-0.965-101.963-3.169-146.5-2.155-54.973-11.312-92.16-23.701-124.497-13.467-33.415-30.704-61.979-59.253-90.543s-57.098-46.349-90.496-59.284c-32.858-12.396-70.026-21.019-124.431-23.714-54.944-2.695-72.181-3.234-211.156-3.234s-156.213 0.539-210.618 2.695c-54.944 2.156-92.112 11.318-124.431 23.714-33.397 13.474-61.946 30.72-90.496 59.284s-46.325 57.128-59.253 90.543c-12.389 32.876-21.008 70.063-23.701 124.497-2.204 44.978-2.965 64.7-3.169 146.543v129.445c0.204 81.828 0.965 101.471 3.169 146.008 2.155 54.973 11.312 92.16 23.701 124.497 12.928 33.954 30.704 62.518 59.253 90.543 28.549 28.564 57.098 46.349 90.496 59.284 32.32 12.935 69.488 21.558 123.893 23.714 44.954 2.205 64.666 2.966 146.466 3.171zM511.731 867.84c-136.821 0-152.981-0.539-206.847-2.695-49.557-2.695-77.029-10.779-94.805-17.785-24.24-9.701-40.938-20.48-59.253-38.265-17.776-18.324-28.549-35.032-37.706-59.284-7.003-17.785-15.621-44.733-17.776-94.855-2.326-46.545-3.045-64.952-3.198-157.287v-99.337c0.153-92.335 0.872-110.742 3.198-157.287 2.693-49.583 10.773-77.069 17.776-94.855 9.157-23.714 20.469-40.96 38.245-58.745s35.013-29.103 58.714-38.265c17.776-7.006 44.709-15.629 94.805-17.785 53.866-2.695 70.026-3.234 206.847-3.234s152.981 0.539 206.847 3.234c49.557 2.695 77.029 10.779 94.805 17.785 23.701 9.162 40.938 20.48 58.714 38.265s29.088 35.032 38.245 58.745c7.003 17.785 15.621 44.733 17.776 94.855 2.448 48.995 3.116 66.812 3.217 172.496v68.92c-0.101 105.684-0.769 123.5-3.217 172.496-2.693 49.583-10.773 77.069-17.776 94.855-9.157 23.714-20.469 40.96-38.245 58.745s-35.013 29.103-58.714 38.265c-17.776 7.006-44.709 15.629-94.805 17.785-53.866 2.695-70.026 3.234-206.847 3.234zM511.731 711.006c144.901 0 262.868-117.491 262.868-263.006s-117.429-263.006-262.868-263.006c-145.439 0-262.868 117.491-262.868 263.006s117.967 263.006 262.868 263.006zM511.731 618.846c-94.266 0-170.756-76.531-170.756-170.846s76.49-170.846 170.756-170.846c94.266 0 170.756 76.531 170.756 170.846s-76.49 170.846-170.756 170.846zM784.833 782.686c33.915 0 61.408-27.508 61.408-61.44s-27.493-61.44-61.408-61.44c-33.915 0-61.408 27.508-61.408 61.44s27.493 61.44 61.408 61.44z" />
<glyph unicode="&#xe90c;" glyph-name="user1" d="M511.999 446.68c-269.853 0-489.401-219.551-489.401-489.401 0-11.746 9.533-21.279 21.279-21.279s21.279 9.533 21.279 21.279c0 246.403 200.442 446.845 446.845 446.845s446.845-200.442 446.845-446.845c0-11.746 9.533-21.279 21.279-21.279s21.279 9.533 21.279 21.279c-0.002 269.895-219.553 489.401-489.405 489.401zM511.999 960c-129.033 0-234.061-104.987-234.061-234.061s105.031-234.061 234.061-234.061 234.061 104.987 234.061 234.061-105.029 234.061-234.061 234.061zM511.999 534.434c-105.583 0-191.505 85.922-191.505 191.505s85.922 191.505 191.505 191.505c105.583 0 191.505-85.922 191.505-191.505s-85.922-191.505-191.505-191.505z" />
<glyph unicode="&#xe90d;" glyph-name="wishlist" d="M757.334 917.334c-113.584 0-207.396-105.5-245.334-155.292-37.938 49.792-131.75 155.292-245.334 155.292-147.040 0-266.666-135.188-266.666-301.334 0-90.646 35.98-175.124 98.958-232.938 0.916-1.584 2.042-3.042 3.354-4.354l394.626-393.812c4.166-4.146 9.604-6.23 15.062-6.23s10.916 2.084 15.084 6.25l411.958 411.688c3.334 3.146 6.626 6.334 10.312 10.416 1.542 1.52 2.812 3.23 3.792 5.084 45.73 56 70.854 128.23 70.854 203.896 0 166.146-119.624 301.334-266.666 301.334zM917.646 436.104c-0.584-0.688-1.126-1.416-1.604-2.166-2-2.292-4.188-4.312-6.354-6.376l-397.708-397.416-374.646 373.896c-1.208 2.376-2.896 4.542-4.958 6.354-57.022 49.792-89.71 124.73-89.71 205.604 0 142.626 100.48 258.666 224 258.666 122.126 0 226.354-159.292 227.396-160.896 7.876-12.166 28-12.166 35.876 0 1.042 1.604 105.27 160.896 227.396 160.896 123.52 0 224-116.042 224-258.666 0-67.208-22.626-131.104-63.688-179.896z" />
<glyph unicode="&#xe90e;" glyph-name="lock" d="M512 857.6c102.4 0 185.6-83.2 185.6-185.6v0-134.4h134.4c20.053 0 36.267-16.213 36.267-36.267v0-426.667c0-20.053-16.213-36.267-36.267-36.267v0h-640c-20.053 0-36.267 16.213-36.267 36.267v0 426.667c0 20.053 16.213 36.267 36.267 36.267v0h134.4v134.4c0 102.4 83.2 185.6 185.6 185.6zM795.733 465.067h-567.467v-354.133h567.467v354.133zM512 373.333c35.413 0 64-28.587 64-64 0-23.467-12.8-43.947-32-55.040v0-72.96h-64v72.96c-19.2 11.093-32 31.573-32 55.040 0 35.413 28.587 64 64 64zM512 785.067c-62.293 0-113.067-50.773-113.067-113.067v0-134.4h226.133v134.4c0 62.293-50.773 113.067-113.067 113.067z" />
<glyph unicode="&#xe90f;" glyph-name="search1" d="M913.965 99.93l-204.8 204.8c48.505 60.182 77.249 136.084 77.249 219.172 0 193.572-157.193 350.765-350.765 350.765s-350.316-157.193-350.316-350.765c0-193.572 157.193-350.765 350.765-350.765 83.088 0 158.989 29.193 219.172 77.249l204.8-204.8c7.635-7.635 17.067-11.228 26.947-11.228s19.761 3.593 26.947 11.228c14.821 15.27 14.821 39.523 0 54.344zM161.684 523.902c0 151.354 123.060 274.414 274.414 274.414s274.414-123.060 274.414-274.414c0-151.354-123.060-274.414-274.414-274.414-151.354 0.449-274.414 123.509-274.414 274.414z" />
<glyph unicode="&#xe910;" glyph-name="instagram1" d="M985.343 921.327c-25.779 25.786-56.671 38.673-92.661 38.673h-761.34c-36.002 0-66.885-12.892-92.671-38.673-25.781-25.774-38.668-56.662-38.668-92.657v-761.333c0-35.99 12.885-66.885 38.668-92.661 25.786-25.779 56.676-38.675 92.671-38.675h761.331c35.983 0 66.885 12.896 92.664 38.675 25.786 25.777 38.661 56.671 38.661 92.661v761.333c-0.002 36.002-12.875 66.873-38.654 92.657zM367.68 591.005c40.219 38.883 88.554 58.334 144.999 58.334 56.882 0 105.434-19.451 145.662-58.334 40.228-38.89 60.33-85.895 60.33-141.004 0-55.102-20.102-102.109-60.33-140.988-40.228-38.899-88.764-58.348-145.662-58.348-56.443 0-104.773 19.465-144.999 58.348-40.228 38.883-60.34 85.885-60.34 140.988 0 55.109 20.112 102.111 60.34 141.004zM908.016 94.659c0-11.547-4.012-21.209-12.004-28.992-8.016-7.776-17.557-11.666-28.679-11.666h-712.655c-11.554 0-21.228 3.89-28.999 11.666-7.783 7.766-11.671 17.445-11.671 28.992v432.015h93.997c-8.885-28.004-13.328-57.12-13.328-87.335 0-85.353 31.107-158.117 93.329-218.352 62.229-60.211 137.116-90.331 224.671-90.331 57.778 0 111.108 13.784 160.013 41.337 48.889 27.57 87.531 65.005 115.996 112.344 28.448 47.336 42.671 99.006 42.671 155 0 30.215-4.46 59.324-13.345 87.335h90.009v-432.015h-0.005zM908.016 690.008c0-12.889-4.444-23.78-13.347-32.667-8.885-8.894-19.768-13.335-32.665-13.335h-115.996c-12.882 0-23.782 4.444-32.667 13.335-8.887 8.887-13.328 19.778-13.328 32.667v109.99c0 12.446 4.441 23.222 13.328 32.336 8.887 9.109 19.787 13.669 32.667 13.669h115.996c12.896 0 23.782-4.558 32.665-13.669 8.901-9.114 13.347-19.89 13.347-32.336v-109.99z" />
<glyph unicode="&#xe911;" glyph-name="pinterest" d="M512.725 960c-282.496 0-511.488-228.992-511.488-511.445 0-216.704 134.741-401.792 325.035-476.245-4.48 40.491-8.491 102.528 1.749 146.731 9.344 39.979 59.989 254.165 59.989 254.165s-15.317 30.72-15.317 75.989c0 70.955 41.259 124.203 92.501 124.203 43.691 0 64.768-32.811 64.768-72.021 0-43.904-27.861-109.525-42.325-170.325-12.16-50.901 25.6-92.373 75.733-92.373 90.795 0 160.768 95.787 160.768 234.112 0 122.069-88.021 207.744-213.675 207.744-145.493 0-230.784-109.312-230.784-221.824 0-44.075 16.811-91.435 37.931-116.949 4.224-5.12 4.779-9.6 3.627-14.72-3.84-16-12.501-51.157-14.251-58.155-2.261-9.6-7.339-11.563-17.109-7.040-63.787 29.44-103.808 122.795-103.808 198.229 0 161.109 117.248 309.419 337.92 309.419 177.408 0 315.392-126.592 315.392-295.381 0-176.427-111.232-318.379-265.941-318.379-51.797 0-100.437 26.837-117.675 58.837l-31.957-121.515c-11.477-44.587-42.837-100.352-63.915-134.229 47.915-14.72 98.389-22.827 151.467-22.827 281.899 0 511.36 228.907 511.36 511.445 0 282.581-229.461 511.445-511.36 511.445z" />
<glyph unicode="&#xe912;" glyph-name="twitter" d="M1022.037 765.056c-37.76-16.597-78.080-27.904-120.533-33.067 43.264 26.069 76.544 67.157 92.288 116.181-40.576-23.68-85.547-40.917-133.419-50.517-38.229 40.917-92.715 66.517-153.216 66.517-115.925 0-209.92-93.995-209.92-209.792 0-16.64 1.92-32.64 5.419-47.957-174.507 8.235-329.173 92.032-432.683 218.709-18.219-30.805-28.416-66.603-28.416-105.6 0-72.96 37.12-137.088 93.355-174.763-34.432 1.109-66.816 10.581-95.061 26.283v-2.603c0-101.76 72.235-186.624 168.363-205.952-17.621-4.736-36.224-7.296-55.296-7.296-13.397 0-26.24 1.28-39.083 3.669 26.923-83.328 104.32-144.085 196.437-145.792-71.68-56.277-162.517-89.813-260.352-89.813-16.64 0-33.237 0.981-49.92 2.859 93.397-59.477 203.435-94.251 322.432-94.251 386.304 0 597.291 319.829 597.291 596.736 0 8.917 0 17.92-0.64 26.88 41.003 29.397 76.8 66.56 104.96 108.715z" />
<glyph unicode="&#xe913;" glyph-name="plus" d="M819.2 460.8c0-28.314-2.458-51.2-30.771-51.2h-225.229v-225.229c0-28.262-22.886-30.771-51.2-30.771s-51.2 2.509-51.2 30.771v225.229h-225.229c-28.262 0-30.771 22.886-30.771 51.2s2.509 51.2 30.771 51.2h225.229v225.229c0 28.314 22.886 30.771 51.2 30.771s51.2-2.458 51.2-30.771v-225.229h225.229c28.314 0 30.771-22.886 30.771-51.2z" />
<glyph unicode="&#xe914;" glyph-name="minus" d="M819.2 460.8c0-28.314-2.458-51.2-30.771-51.2h-552.858c-28.262 0-30.771 22.886-30.771 51.2s2.509 51.2 30.771 51.2h552.909c28.262 0 30.72-22.886 30.72-51.2z" />
<glyph unicode="&#xe915;" glyph-name="linkedin" d="M147.92 908.002c-70.395 0-116.42-46.225-116.42-106.98 0-59.414 44.654-106.957 113.719-106.957h1.336c71.771 0 116.437 47.543 116.437 106.957-1.342 60.756-44.666 106.98-115.072 106.98zM43.664 609.531h205.793v-619.137h-205.793zM754.582 624.062c-111.018 0-185.461-104.32-185.461-104.32v89.789h-205.799v-619.137h205.787v345.75c0 18.51 1.342 36.99 6.779 50.227 14.877 36.961 48.732 75.252 105.586 75.252 74.467 0 104.25-56.777 104.25-140.010v-331.219h205.775v355.002c0 190.172-101.531 278.666-236.918 278.666z" />
<glyph unicode="&#xe916;" glyph-name="facebook1" d="M938.508 928.5h-854.062c-29.244-0.018-52.951-23.736-52.945-52.992v-854.062c0.018-29.244 23.736-52.951 52.992-52.945h459.82v371.25h-124.687v145.312h124.687v106.939c0 124.014 75.709 191.514 186.334 191.514 52.986 0 98.52-3.949 111.791-5.713v-129.615h-76.283c-60.187 0-71.842-28.6-71.842-70.576v-92.549h143.906l-18.75-145.312h-125.156v-371.25h244.195c29.262-0.006 52.986 23.707 52.992 52.969 0 0.006 0 0.012 0 0.023v854.062c-0.012 29.244-23.736 52.951-52.992 52.945z" />
<glyph unicode="&#xe917;" glyph-name="cart" horiz-adv-x="1194" d="M1118.907 600.351h-234.771l-219.785 324.683c-14.985 24.976-39.961 34.966-64.937 34.966s-49.951-9.99-64.937-34.966l-219.785-324.683h-239.766c-39.961 0-74.927-34.966-74.927-74.927 0-4.995 0-14.985 4.995-19.98l129.873-474.537c14.985-54.946 64.937-94.907 124.878-94.907h679.337c59.941 0 109.893 39.961 124.878 94.907l134.868 479.532v14.985c-4.995 39.961-39.961 74.927-79.922 74.927zM1143.883 515.434l-129.873-474.537c-9.99-34.966-39.961-54.946-74.927-54.946h-679.337c-34.966 0-64.937 24.976-74.927 54.946l-134.868 479.532c0 0 0 4.995 0 4.995s0 0 0 0c0 14.985 9.99 24.976 24.976 24.976h264.741l234.771 349.659c4.995 4.995 14.985 9.99 24.976 9.99s14.985-4.995 24.976-9.99l234.771-349.659h264.741c14.985 0 24.976-9.99 24.976-24.976l-4.995-9.99zM394.615 550.4h409.6l-204.8 294.712-204.8-294.712zM489.522 600.351l109.893 159.844 109.893-154.849-219.785-4.995z" />
<glyph unicode="&#xe918;" glyph-name="chevron-right" horiz-adv-x="967" d="M323.641 251.051l188.7 189.099-188.7 189.099 58.084 58.084 247.182-247.182-247.182-247.182z" />
<glyph unicode="&#xe919;" glyph-name="envelop" horiz-adv-x="892" d="M750.856 789.322h-591.608c-41.442-3.431-73.776-37.912-73.776-79.944 0-1.892 0.066-3.769 0.194-5.629l-0.014 0.251-0.363-512c-0.102-1.518-0.16-3.29-0.16-5.076 0-42.213 32.492-76.837 73.831-80.227l0.289-0.019h591.608c41.627 3.409 74.119 38.033 74.119 80.246 0 1.786-0.058 3.558-0.173 5.315l0.012-0.239v512c0.102 1.518 0.16 3.29 0.16 5.076 0 42.213-32.492 76.837-73.831 80.227l-0.289 0.019zM750.856 618.645l-295.804-213.322-295.804 213.322v85.355l295.804-213.322 295.804 213.322v-85.355z" />
<glyph unicode="&#xe91a;" glyph-name="facebook" d="M680.675-64v369.921h137.664l20.62 160.061h-158.284v102.292c0 46.355 12.867 77.958 79.357 77.958h84.795v143.155c-35.813 4.016-77.331 6.306-119.383 6.306-1.412 0-2.823-0.003-4.233-0.008l0.219 0.001c-4.169 0.321-9.029 0.504-13.931 0.504-106.537 0-192.902-86.365-192.902-192.902 0-6.757 0.347-13.432 1.025-20.010l-0.069 0.825v-118.067h-138.687v-160.061h138.525v-369.975h-413.099c-56.494 0-102.292 45.798-102.292 102.292v0 819.415c0 56.494 45.798 102.292 102.292 102.292v0h819.308c56.494 0 102.292-45.798 102.292-102.292v0-819.308c0-56.494-45.798-102.292-102.292-102.292v0z" />
<glyph unicode="&#xe91b;" glyph-name="heart" horiz-adv-x="1151" d="M575.537-64l-97.057 84.411c-288.124 249.778-478.479 414.74-478.479 624.954 1.865 174.251 143.556 314.79 318.072 314.79 3.489 0 6.964-0.056 10.426-0.168l-0.505 0.013c95.961-0.402 183.074-37.951 247.772-99.001l-0.178 0.166c64.533 60.895 151.666 98.447 247.568 98.834h0.077c2.957 0.099 6.432 0.155 9.921 0.155 174.516 0 316.207-140.539 318.070-314.614l0.001-0.176c0-101.577-43.577-195.384-145.662-314.381-102.991-109.372-211.033-210.575-325.117-304.719l-5.974-4.787-2.438-2.133zM327.993 909.211c-2.779 0.103-6.044 0.162-9.323 0.162-146.591 0-265.684-117.734-267.879-263.802l-0.002-0.207c0-187.004 183.398-345.972 460.957-586.558l0.711-0.609 63.232-55.004 65.517 56.579c118.125 97.357 224.438 196.831 324.225 302.531l1.584 1.693c93.553 109.043 133.422 192.997 133.422 281.369-2.198 146.275-121.291 264.009-267.882 264.009-3.279 0-6.543-0.059-9.793-0.176l0.471 0.013c-90.495-0.302-171.819-39.312-228.327-101.33l-0.222-0.247-18.944-21.28-19.097 21.28c-56.752 62.289-138.118 101.306-228.601 101.577h-0.049z" />
<glyph unicode="&#xe91c;" glyph-name="instagram" d="M499.754 867.734c136.709 0 153.072-0.528 206.911-3.009 138.768-6.334 203.586-72.155 209.867-209.867 2.481-53.998 2.956-70.202 2.956-206.911s-0.528-153.072-2.956-206.911c-6.334-137.607-70.994-203.586-209.867-209.867-53.998-2.481-70.149-3.009-206.911-3.009s-153.072 0.528-206.911 3.009c-139.085 6.334-203.586 72.472-209.867 209.92-2.481 53.998-3.009 70.149-3.009 206.911s0.581 153.072 3.009 206.911c6.387 137.659 70.994 203.533 209.867 210.078 53.998 2.428 70.202 2.956 206.911 2.956zM499.754 960c-139.032 0-156.45-0.581-211.134-3.061-185.903-8.551-289.201-111.69-297.752-297.805-2.534-54.684-3.114-72.102-3.114-211.134s0.581-156.503 3.061-211.134c8.551-185.903 111.69-289.254 297.805-297.805 54.631-2.481 72.049-3.061 211.134-3.061s156.503 0.581 211.134 3.061c185.798 8.551 289.359 111.69 297.752 297.805 2.534 54.631 3.114 72.049 3.114 211.134s-0.581 156.45-3.061 211.134c-8.34 185.798-111.637 289.306-297.752 297.805-54.684 2.481-72.155 3.061-211.187 3.061zM499.754 710.915c-145.204 0-262.915-117.711-262.915-262.915s117.711-262.915 262.915-262.915c145.204 0 262.915 117.711 262.915 262.915v0c0 145.204-117.711 262.915-262.915 262.915v0zM499.754 277.351c-94.247 0-170.649 76.402-170.649 170.649s76.402 170.649 170.649 170.649c94.247 0 170.649-76.402 170.649-170.649v0c0-94.247-76.402-170.649-170.649-170.649v0zM773.067 782.753c-0.016 0-0.034 0-0.053 0-33.932 0-61.44-27.508-61.44-61.44s27.508-61.44 61.44-61.44c33.932 0 61.44 27.508 61.44 61.44v0c-0.030 33.891-27.496 61.357-61.384 61.387h-0.003z" />
<glyph unicode="&#xe91d;" glyph-name="phone" horiz-adv-x="812" d="M224.009 491.538c45.123-118.265 122.34-215.795 221.019-284.713l1.966-1.301 74.434 95.514c5.215 7.69 13.913 12.676 23.776 12.676 3.864 0 7.549-0.765 10.912-2.152l-0.19 0.070c35.63-15.577 77.145-24.664 120.776-24.717h0.020c19.356-2.842 34.048-19.333 34.048-39.255 0-1.471-0.080-2.924-0.236-4.353l0.016 0.177v-151.729c0.14-1.253 0.221-2.705 0.221-4.176 0-19.922-14.692-36.413-33.832-39.229l-0.216-0.026c-317.687-0.071-575.206 330.328-575.206 737.986-0.14 1.253-0.221 2.705-0.221 4.176 0 19.922 14.692 36.413 33.832 39.229l0.216 0.026h118.466c19.356-2.842 34.048-19.333 34.048-39.255 0-1.471-0.080-2.924-0.236-4.353l0.016 0.177c-0.001-0.401-0.001-0.876-0.001-1.35 0-54.592 7.034-107.541 20.244-157.991l-0.963 4.329c1.069-3.962 1.684-8.511 1.684-13.203 0-11.689-3.812-22.487-10.26-31.22l0.101 0.144z" />
<glyph unicode="&#xe91e;" glyph-name="search" horiz-adv-x="1013" d="M723.774 323.072h-45.72l-16.218 15.609c56.503 65.533 90.916 151.502 90.916 245.509 0 208.18-168.763 376.943-376.943 376.943s-376.943-168.763-376.943-376.943c0-208.18 168.763-376.943 376.943-376.943 94.007 0 179.976 34.413 245.998 91.328l-0.489-0.412 15.609-16.218v-45.72l289.543-288.934 86.459 86.237-288.934 289.543zM376.334 323.072c-143.922 0-260.594 116.672-260.594 260.594s116.672 260.594 260.594 260.594c143.922 0 260.594-116.672 260.594-260.594 0-0.020 0-0.039 0-0.059v0.003c0-0.115 0-0.251 0-0.388 0-143.678-116.474-260.151-260.151-260.151-0.136 0-0.273 0-0.409 0h0.021z" />
<glyph unicode="&#xe91f;" glyph-name="user" d="M1024-64h-1024v147.2c0 82.79 68.608 154.010 198.4 206.029 92.728 37.368 200.136 60.18 312.544 62.752l1.056 0.019c113.459-2.58 220.869-25.373 319.782-64.9l-6.182 2.18c129.792-52.019 198.4-123.238 198.4-206.029zM51.2-12.8h921.6v96c0 79.974-104.141 133.632-166.246 158.72-87.101 34.795-187.947 56.165-293.436 58.857l-1.117 0.023c-106.62-2.806-207.436-24.262-300.413-61.208l5.911 2.072c-62.157-24.832-166.298-78.49-166.298-158.464zM512 422.4c-148.454 0-268.8 120.346-268.8 268.8s120.346 268.8 268.8 268.8c148.454 0 268.8-120.346 268.8-268.8v0c0.023-1.283 0.036-2.796 0.036-4.313 0-94.337-50.027-176.99-124.999-222.877l-1.143-0.65c-40.678-25.116-89.847-40.263-142.503-40.958l-0.192-0.002zM512 908.8c-120.177 0-217.6-97.423-217.6-217.6s97.423-217.6 217.6-217.6v0c43.7 0.715 84.275 13.488 118.719 35.122l-0.959-0.562h0.358c60.052 37.885 99.361 103.874 99.361 179.044 0 1.315-0.012 2.627-0.036 3.936l0.003-0.197c0 0 0 0 0 0 0 120.175-97.304 217.623-217.424 217.856h-0.022z" />
<glyph unicode="&#xe920;" glyph-name="heart-full" horiz-adv-x="1070" d="M534.976-25.482l-73.207 68.871c-261.293 243.611-433.612 404.16-433.612 601.256-0.056 2.097-0.089 4.566-0.089 7.042 0 154.263 124.68 279.406 278.768 280.155h0.071c91.672-1.048 173.327-43.048 227.67-108.528l0.399-0.494c54.741 65.975 136.396 107.975 227.891 109.021l0.177 0.002c154.159-0.749 278.839-125.892 278.839-280.155 0-2.476-0.032-4.945-0.096-7.406l0.007 0.364c0-197.096-172.319-357.871-433.612-602.045l-73.207-68.083zM534.976-64l-93.367 87.398c-265.911 248.229-441.608 412.213-441.608 621.248-0.060 2.264-0.094 4.93-0.094 7.603 0 169.703 137.357 307.324 306.96 307.751h0.041c89.134-0.945 169.585-37.344 228.073-95.737l-0.004 0.004c58.483 58.388 138.935 94.787 227.888 95.731l0.18 0.002c169.644-0.427 307.001-138.048 307.001-307.751 0-2.674-0.034-5.339-0.102-7.996l0.008 0.393c0-208.922-175.134-372.737-440.257-620.741l-2.027-1.858zM306.907 903.687c-138.619-0.776-250.691-113.327-250.691-252.054 0-2.457 0.035-4.905 0.105-7.345l-0.008 0.358c0-184.538 168.602-341.878 423.757-580.026l0.619-0.619 54.342-50.682 56.313 52.259c254.367 237.923 422.349 395.15 422.349 579.632 0.052 1.913 0.082 4.165 0.082 6.423 0 138.742-112.096 251.302-250.66 252.054h-0.072c-82.982-0.998-156.876-39.065-206.025-98.379l-0.363-0.451-21.681-26.242-21.681 26.242c-49.513 59.765-123.406 97.832-206.22 98.828l-0.168 0.002z" />
<glyph unicode="&#xe921;" glyph-name="check" horiz-adv-x="1343" d="M426.843 152.147l-318.38 318.38-108.463-107.684 426.843-426.287 916.316 915.76-107.684 107.684z" />
<glyph unicode="&#xe922;" glyph-name="arrow-left" horiz-adv-x="1681" d="M632.32 56.32l-390.827 391.68 390.827 391.68-120.32 120.32-512-512 512-512zM316.16 533.333h1280c47.128 0 85.333-38.205 85.333-85.333s-38.205-85.333-85.333-85.333h-1280c-47.128 0-85.333 38.205-85.333 85.333s38.205 85.333 85.333 85.333zM316.16 533.333h1280c47.128 0 85.333-38.205 85.333-85.333s-38.205-85.333-85.333-85.333v0h-1280c-47.128 0-85.333 38.205-85.333 85.333s38.205 85.333 85.333 85.333v0z" />
<glyph unicode="&#xe923;" glyph-name="arrow-right" horiz-adv-x="1681" d="M1049.173 56.32l390.827 391.68-390.827 391.68 120.32 120.32 512-512-512-512zM85.333 533.333h1280c47.128 0 85.333-38.205 85.333-85.333s-38.205-85.333-85.333-85.333h-1280c-47.128 0-85.333 38.205-85.333 85.333s38.205 85.333 85.333 85.333zM85.333 533.333h1280c47.128 0 85.333-38.205 85.333-85.333s-38.205-85.333-85.333-85.333v0h-1280c-47.128 0-85.333 38.205-85.333 85.333s38.205 85.333 85.333 85.333v0z" />
</font>
</defs>
</svg>
